<?xml version="1.0" encoding="UTF-8" standalone="no"?>
<svg
   xmlns:dc="http://purl.org/dc/elements/1.1/"
   xmlns:cc="http://creativecommons.org/ns#"
   xmlns:rdf="http://www.w3.org/1999/02/22-rdf-syntax-ns#"
   xmlns:svg="http://www.w3.org/2000/svg"
   xmlns="http://www.w3.org/2000/svg"
   xmlns:sodipodi="http://sodipodi.sourceforge.net/DTD/sodipodi-0.dtd"
   xmlns:inkscape="http://www.inkscape.org/namespaces/inkscape"
   version="1.1"
   id="Layer_1"
   x="0px"
   y="0px"
   viewBox="0 0 320 319.99999"
   xml:space="preserve"
   sodipodi:docname="wayk-ninja.svg"
   width="320"
   height="320"
   inkscape:version="1.0.2 (e86c870879, 2021-01-15, custom)"
   inkscape:export-filename="C:\Users\mamoreau\Documents\wayk_ninja_128.png"
   inkscape:export-xdpi="38.400002"
   inkscape:export-ydpi="38.400002"><metadata
   id="metadata90"><rdf:RDF><cc:Work
       rdf:about=""><dc:format>image/svg+xml</dc:format><dc:type
         rdf:resource="http://purl.org/dc/dcmitype/StillImage" /><dc:title /></cc:Work></rdf:RDF></metadata><defs
   id="defs88" /><sodipodi:namedview
   pagecolor="#ffffff"
   bordercolor="#666666"
   borderopacity="1"
   objecttolerance="10"
   gridtolerance="10"
   guidetolerance="10"
   inkscape:pageopacity="0"
   inkscape:pageshadow="2"
   inkscape:window-width="2400"
   inkscape:window-height="1322"
   id="namedview86"
   showgrid="false"
   inkscape:zoom="2.184136"
   inkscape:cx="83.328146"
   inkscape:cy="157.50262"
   inkscape:window-x="4792"
   inkscape:window-y="-8"
   inkscape:window-maximized="1"
   inkscape:current-layer="Layer_1"
   inkscape:document-rotation="0" />
<style
   type="text/css"
   id="style51">
	.st0{fill:#FFFFFF;}
	.st1{fill:#5BAA66;}
	.st2{fill:#1B8238;}
</style>
<g
   id="g55"
   transform="translate(-7.3255517,4.5784694)">
	<path
   class="st0"
   d="m 306.7,242.6 c 12.2,-16.7 15.4,-37.5 9,-58.7 l -0.1,-0.4 -25,-69 -0.1,-0.4 c -1.1,-2.7 -2.1,-6.4 -3.1,-10.4 v -0.1 C 286.2,99 284.7,93.5 282.7,87.8 l 5.9,-10.5 c 3.2,-5.7 4,-12.3 2.3,-18.6 -1.7,-6.3 -5.7,-11.6 -11.3,-14.8 -2,-1.2 -4.1,-2 -6.3,-2.6 0,0 0,0 0,0 -2.8,-5.9 -7.7,-10.4 -13.7,-12.6 -6.1,-2.2 -12.7,-1.9 -18.5,0.9 -4.1,1.9 -7.4,4.9 -9.9,8.6 C 213.6,32 191.7,29 164.7,29 H 148 v 26.2 c -1.6,0.4 -3.2,0.9 -4.7,1.4 -7.6,-9.7 -21.4,-12.3 -32,-5.5 -5.5,3.5 -9.2,9 -10.6,15.4 -0.4,1.9 -0.6,3.8 -0.6,5.7 -9.8,3.2 -16.9,12.4 -16.9,23.4 0,7.4 3.3,14.1 8.5,18.6 -2,4.1 -4,8.1 -6,12.1 l -0.1,0.1 C 77.2,143 68.5,160.2 65,183.2 c -2,12.8 -1.2,26.7 2,39.1 2.2,8.4 5.5,16 9.8,22.8 l -7.8,8.9 36.1,32.6 5.6,-6.3 15.1,7.7 4.5,-8.2 c 19.7,5.3 39.2,6 52.9,6 h 3.6 c 22.8,0 44.2,-2.7 62.7,-7.9 l 5.5,11 15.4,-8.1 7.3,8.2 36.2,-32.6 -9.4,-10.7 c 0.7,-1.1 1.5,-2.1 2.2,-3.1 z"
   id="path53" />
</g>
<path
   class="st0"
   d="m 118.47444,117.67847 c 0,-0.1 0,-0.2 0,-0.3 -0.2,-2.4 -2.3,-4.1 -4.7,-3.9 -2.3,0.2 -4,2.1 -4,4.3 -0.4,0.9 -3.39999,3.3 -13.099987,3.7 -8.000004,0.3 -15.800004,-1.4 -23.400004,-3.1 -8.9,-2 -18.1,-4 -27.6,-2.7 -16.7,2.2 -31,5.8 -31.6,5.9 -1.6,0.4 -2.9,1.8 -3.2,3.4 -0.3,1.7 0.4,3.4 1.8,4.4 0,0 3.8,2.8 6.4,7.5 0.7,1.4 2,4.7 2.9,7.3 -0.3,1.2 0,2.6 0.9,3.6 0.9,1.1 2.1,1.6 3.4,1.6 0.8,0 1.6,-0.2 2.4,-0.7 0.1,-0.1 13.8,-8.8 26.2,-10.6 5.7,-0.8 10.1,0.5 15.1,2.1 5.6,1.7 11.9,3.7 20.8,2.8 17.099991,-1.6 26.699991,-10 27.099991,-10.4 1,-0.9 1.5,-2.2 1.4,-3.5 z"
   id="path57" />
<path
   class="st0"
   d="m 26.174449,154.87847 c -3,0 -5.7,-1.3 -7.6,-3.6 -1.5,-1.8 -2.2,-4 -2.2,-6.3 -1.1,-2.9 -1.9,-4.8 -2.2,-5.4 -1.9,-3.6 -4.8000003,-5.7 -4.8000003,-5.7 -3,-2.2 -4.6,-6 -3.9,-9.7 0.7,-3.7 3.5,-6.7 7.2000003,-7.7 0.6,-0.2 15.1,-3.8 32.2,-6.1 10.5,-1.4 20.1,0.8 29.5,2.8 7.2,1.6 14.7,3.2 22.000004,3 4.799997,-0.2 7.299997,-0.9 8.399997,-1.3 1.2,-3.7 4.49999,-6.3 8.49999,-6.7 5.3,-0.4 10,3.5 10.5,8.8 0,0.2 0,0.3 0,0.5 l 0.7,11.6 c 0.2,3 -1,5.9 -3.2,7.9 -1.1,1 -11.6,10 -30.199991,11.7 -9.9,0.9 -17.1,-1.3 -22.9,-3.1 -4.8,-1.5 -8.2,-2.5 -12.7,-1.9 -11.1,1.6 -23.9,9.7 -24.1,9.8 -1.5,0.9 -3.3,1.4 -5.2,1.4 z m -8.8,-28.5 c 1.7,1.5 4.3,4.2 6.4,8 1,1.9 2.5,5.8 3.3,8 l 0.3,0.8 c 4.2,-2.5 15.7,-8.8 26.7,-10.4 6.9,-1 12.3,0.6 17.4,2.2 5.4,1.6 10.9,3.4 18.7,2.6 13.500001,-1.2 21.799991,-7.3 23.599991,-8.7 l -0.4,-7.1 c -2.8,2.9 -8.49999,4.6 -16.499987,5 -8.700004,0.3 -16.800004,-1.5 -24.700004,-3.2 -8.5,-1.9 -17.2,-3.8 -25.7,-2.7 -13.2,1.9 -24.7,4.4 -29.1,5.5 z m -1.7,-1.3 c 0,0 0,0 0,0 0,0 0,0 0,0 z m 90.000001,-10.7 z"
   id="path59" />
<path
   class="st1"
   d="m 115.27444,117.37847 c 0,0 0.7,7.3 -17.299987,8 -18.000004,0.7 -34.000004,-8 -50.600004,-5.8 -16.6,2.2 -31.1,5.8 -31.1,5.8 0,0 4.6,3.2 7.7,9 1.4,2.7 3.9,9.7 3.9,9.7 l -0.5,0.5 c 0,0 14.4,-9.3 27.9,-11.2 13.5,-1.9 20.2,6.3 36.1,4.9 15.899991,-1.4 24.599991,-9.3 24.599991,-9.3 z"
   id="path61" />
<path
   class="st0"
   d="m 100.77445,153.57847 -4.199997,-8.6 c -0.6,-1.3 -1.9,-2.2 -3.400004,-2.3 -1.5,-0.2 -2.9,0.4 -3.8,1.6 -0.1,0.1 -6.8,8.4 -18.3,10.9 -12.6,2.7 -21.8,3.2 -21.9,3.2 -1.3,0.1 -2.4,0.7 -3.2,1.7 -0.8,1 -1,2.3 -0.7,3.6 l 3.8,15.7 c 0.5,2 2.2,3.3 4.1,3.3 0.3,0 0.6,0 0.9,-0.1 0.6,-0.1 14.8,-3 26.5,-8.9 12,-6 19.400004,-15 19.700001,-15.4 1,-1.4 1.2,-3.2 0.5,-4.7 z"
   id="path63" />
<path
   class="st0"
   d="m 53.174449,187.97847 c -4.5,0 -8.4,-3.1 -9.4,-7.4 l -3.8,-15.7 c -0.7,-2.8 -0.1,-5.7 1.7,-8.1 1.7,-2.3 4.4,-3.7 7.3,-3.9 0.1,0 9,-0.5 21,-3.1 9.4,-2 15.2,-8.9 15.2,-9 2.1,-2.6 5.3,-3.9 8.600004,-3.5 3.3,0.4 6.2,2.4 7.599997,5.3 l 4.2,8.6 c 1.69999,3.4 1.2,7.5 -1.2,10.4 -0.9,1 -8.699997,10.3 -21.500001,16.8 -12.1,6.1 -26.3,9.1 -27.9,9.4 -0.5,0.1 -1.2,0.2 -1.8,0.2 z m -2.4,-24.4 3.2,13.3 c 3.5,-0.8 14.7,-3.5 24.1,-8.2 9.3,-4.7 15.800004,-11.5 17.500004,-13.5 l -3.200004,-6.4 c -2.6,2.8 -9.7,9.2 -20.2,11.5 -10.2,2.3 -18.3,3.1 -21.4,3.3 z m -1.3,0.1 c 0,0 0,0 0,0 0,0 0,0 0,0 z m 46.500004,-7.8 c 0,0 0,0 0,0 z m -2.400004,-8.3 c 0,0 0,0 0,0 0,0 0,0 0,0 z"
   id="path65" />
<path
   class="st1"
   d="m 92.674449,146.87847 c 0,0 -7.5,9.5 -20.7,12.4 -13.2,2.9 -22.6,3.3 -22.6,3.3 l 3.8,15.7 c 0,0 14.1,-2.9 25.4,-8.6 11.3,-5.7 18.400004,-14.3 18.400004,-14.3 z"
   id="path67" />
<path
   class="st2"
   d="m 107.87444,132.17847 c 0,0 1.5,4.7 -16.499991,5 -14.7,0.3 -18,-9.4 -37.6,-7.4 -9.7,1 -22.3,6.3 -22.3,5.6 0,-0.3 -4.7,-12.1 -5.2,-12 -5.8,0.5 -10,2 -10,2 0,0 4.6,3.2 7.7,9 1.4,2.7 3.9,9.7 3.9,9.7 l -0.5,0.5 c 0,0 14.4,-9.3 27.9,-11.2 13.5,-1.9 20.2,6.3 36.1,4.9 15.899991,-1.4 24.599991,-9.3 24.599991,-9.3 z"
   id="path69" />
<g
   id="g77"
   transform="translate(-7.3255517,4.5784694)">
	<path
   class="st2"
   d="m 301.2,188.3 -24.8,-68.6 c -1.4,-3.5 -2.5,-7.7 -3.6,-12.1 v -0.1 c -1.7,-6.4 -3.6,-13.7 -7,-20.9 l 9.6,-17 c 1.2,-2.1 1.5,-4.6 0.9,-6.9 -0.6,-2.4 -2.1,-4.3 -4.2,-5.5 -2.1,-1.2 -4.5,-1.5 -6.8,-0.9 -2.3,0.6 -4.3,2.2 -5.5,4.3 l -5,8.8 5.2,-14.6 c 0.8,-2.3 0.7,-4.8 -0.3,-7 -1,-2.2 -2.9,-3.9 -5.1,-4.7 -2.3,-0.8 -4.7,-0.7 -6.9,0.3 -2.2,1 -3.8,2.9 -4.6,5.2 l -3.5,9.9 C 222,49 197.5,44.3 164.6,44.3 h -1.5 v 20.8 h 1.5 c 67.8,0 80,19.8 85.9,39.6 -7.5,-7.6 -17.8,-12.1 -28.6,-12.1 -22.3,0 -40.4,18.3 -40.4,40.9 0,1.4 0.1,2.8 0.3,4.4 l -4.8,0.5 c -0.5,-16.7 -14.1,-30.1 -30.8,-30.1 -4.7,0 -9.2,1.1 -13.4,3.1 C 141.9,95.6 151.8,89 166,89 h 18.5 V 68.3 H 166 c -10.5,0 -20.1,2.6 -28.4,7.9 l -5.8,-9.3 c -2.7,-4.2 -8.3,-5.5 -12.5,-2.8 -2,1.3 -3.4,3.3 -4,5.7 -0.5,2.4 -0.1,4.8 1.2,6.9 l 6.1,9.8 h -15.4 c -5,0 -9,4.1 -9,9.1 0,5 4.1,9.1 9,9.1 h 5.7 c -1.6,3.1 -3.2,6.4 -4.9,10.1 -2.9,6.5 -6,12.6 -9,18.5 l -0.1,0.1 c -8.2,16.2 -16,31.5 -19.1,52.2 -1.6,10.8 -1.1,22.4 1.7,32.8 2.9,11.2 8.2,20.8 15.4,27.7 -3.3,2.8 -5.5,5.3 -5.7,5.6 l -1,1.1 13.5,12.1 1,-1.1 c 0.5,-0.6 1.4,-1.5 2.6,-2.6 l 10.9,5.6 1.3,0.6 0.7,-1.3 c 0,0 1.2,-2.3 3.5,-4.7 21.2,7.8 44,8.8 59.4,8.8 h 3.6 c 25.7,0 49.3,-3.6 68.4,-10.5 3.7,3 5.7,6.8 5.8,6.8 l 0.7,1.3 11.8,-6.2 c 2,1.7 3.7,3.3 4.5,4.3 l 1,1.1 13.5,-12.1 -1,-1.1 c -0.4,-0.5 -3.9,-4.4 -9.1,-8.3 5,-3.8 9.1,-7.9 12.3,-12.2 v 0 c 9.3,-12.7 11.6,-28.3 6.6,-45 z M 146.3,161.7 c -12.1,0 -22,-10 -22,-22.2 0,-12.2 9.9,-22.2 22,-22.2 12.1,0 22,10 22,22.2 0,12.2 -9.9,22.2 -22,22.2 z m 75.7,3.8 c -17.4,0 -31.6,-14.3 -31.6,-32 0,-17.7 14.2,-32 31.6,-32 17.4,0 31.6,14.3 31.6,32 0,17.7 -14.2,32 -31.6,32 z M 184.2,148 c 5.9,15.7 21,26.4 37.8,26.4 20.1,0 36.8,-14.9 39.9,-34.3 l 19.8,54.6 c 3,10.2 1.8,18.8 -3.6,26.3 v 0 c -12.7,17.3 -48.5,28.5 -91.3,28.5 h -3.6 c -19.7,0 -48.2,-1.6 -68.8,-15.9 -13,-9 -16.4,-29.5 -14,-44.8 2.5,-16.3 8.6,-29 15.8,-43.3 2.7,14.5 15.1,25.2 30.2,25.2 13.1,0 24.6,-8.4 28.9,-20.7 l 4.5,6.1 z"
   id="path71" />
	<ellipse
   class="st2"
   cx="156.2"
   cy="136.2"
   rx="10.7"
   ry="10.8"
   id="ellipse73" />
	<path
   class="st2"
   d="m 221.2,126.9 c 0,8.2 6.6,14.9 14.7,14.9 8.1,0 14.7,-6.7 14.7,-14.9 0,-8.2 -6.6,-14.9 -14.7,-14.9 -8.1,0 -14.7,6.7 -14.7,14.9 z"
   id="path75" />
</g>
<path
   class="st0"
   d="m 115.07444,91.378468 132.7,-18.599999 c 0,0 10.3,10.2 14.4,20.599999 3.7,9.300002 5.4,14.600002 5.4,14.600002 l -170.499987,17.4 c 0,0.1 10.799987,-24.2 17.999987,-34.000002 z"
   id="path79" />
<path
   class="st1"
   d="m 117.97444,94.678468 c 0,0 -1.9,2.2 -3.7,5.700002 -2.1,4.2 -3.8,6.9 -3.8,6.9 l 38,-3 -39.8,6.7 -4.39999,9.5 c 0,0 71.19999,-7.5 87.39999,-9.4 16.2,-1.9 65.9,-7.3 65.9,-7.3 l -1,-9.600002 h -12.8 l 12.5,-2.6 c 0,0 -1.2,-1.9 -2.2,-4.999999 -1,-3 -7.3,-8.8 -7.3,-8.8 z"
   id="path81" />
<path
   class="st2"
   d="m 108.77444,110.87847 -4.89999,10 c 0,0 57.79999,-6.3 81.89999,-9.1 21.1,-2.4 75.8,-7 75.8,-7 l -4,-10.700002 h -13.7 l 12.5,-2.5 -2.7,-6.099999 c 0,0.1 -2.1,-0.9 -2.1,-0.9 l 1.6,3.299999 -2.6,1.1 -15.7,5.7 c 0,0 9.5,1.2 10.5,1.3 2.5,0.2 5.3,3.2 -0.3,4.300002 -5.5,1.2 -128,16 -128,16 l -0.8,-4.6 31.8,-7.4 z"
   id="path83" />
</svg>
